<svg width="21" height="29" viewBox="0 0 21 29" fill="none" xmlns="http://www.w3.org/2000/svg">
<path d="M20.4414 29H0.949219V25.1328L10.1484 15.3281C11.4115 13.9479 12.3424 12.7435 12.9414 11.7148C13.5534 10.6862 13.8594 9.70964 13.8594 8.78516C13.8594 7.52214 13.5404 6.53255 12.9023 5.81641C12.2643 5.08724 11.3529 4.72266 10.168 4.72266C8.89193 4.72266 7.88281 5.16536 7.14062 6.05078C6.41146 6.92318 6.04688 8.07552 6.04688 9.50781H0.382812C0.382812 7.77604 0.792969 6.19401 1.61328 4.76172C2.44661 3.32943 3.61849 2.20964 5.12891 1.40234C6.63932 0.582031 8.35156 0.171875 10.2656 0.171875C13.1953 0.171875 15.4674 0.875 17.082 2.28125C18.7096 3.6875 19.5234 5.67318 19.5234 8.23828C19.5234 9.64453 19.1589 11.0768 18.4297 12.5352C17.7005 13.9935 16.4505 15.6927 14.6797 17.6328L8.21484 24.4492H20.4414V29Z" fill="#DBAB00"/>
</svg>
