<svg width="21" height="30" viewBox="0 0 21 30" fill="none" xmlns="http://www.w3.org/2000/svg">
<path d="M6.69141 12.2812H9.69922C11.1315 12.2812 12.1927 11.9232 12.8828 11.207C13.5729 10.4909 13.918 9.54036 13.918 8.35547C13.918 7.20964 13.5729 6.31771 12.8828 5.67969C12.2057 5.04167 11.2682 4.72266 10.0703 4.72266C8.98958 4.72266 8.08464 5.02214 7.35547 5.62109C6.6263 6.20703 6.26172 6.97526 6.26172 7.92578H0.617188C0.617188 6.44141 1.01432 5.11328 1.80859 3.94141C2.61589 2.75651 3.73568 1.83203 5.16797 1.16797C6.61328 0.503906 8.20182 0.171875 9.93359 0.171875C12.9414 0.171875 15.2982 0.894531 17.0039 2.33984C18.7096 3.77214 19.5625 5.7513 19.5625 8.27734C19.5625 9.57943 19.1654 10.7773 18.3711 11.8711C17.5768 12.9648 16.5352 13.8047 15.2461 14.3906C16.8477 14.9635 18.0391 15.8229 18.8203 16.9688C19.6146 18.1146 20.0117 19.4688 20.0117 21.0312C20.0117 23.5573 19.0872 25.582 17.2383 27.1055C15.4023 28.6289 12.9674 29.3906 9.93359 29.3906C7.09505 29.3906 4.77083 28.6419 2.96094 27.1445C1.16406 25.6471 0.265625 23.668 0.265625 21.207H5.91016C5.91016 22.2747 6.30729 23.1471 7.10156 23.8242C7.90885 24.5013 8.89844 24.8398 10.0703 24.8398C11.4115 24.8398 12.4596 24.4883 13.2148 23.7852C13.9831 23.069 14.3672 22.125 14.3672 20.9531C14.3672 18.1146 12.8047 16.6953 9.67969 16.6953H6.69141V12.2812Z" fill="#DBAB00"/>
</svg>
